<?xml version="1.0" encoding="UTF-8" standalone="no"?>
<!DOCTYPE svg PUBLIC "-//W3C//DTD SVG 1.1//EN"
 "http://www.w3.org/Graphics/SVG/1.1/DTD/svg11.dtd">
<!-- Generated by graphviz version 2.42.3 (20191010.1750)
 -->
<!-- Title: %3 Pages: 1 -->
<svg width="275pt" height="299pt"
 viewBox="0.00 0.00 275.30 299.00" xmlns="http://www.w3.org/2000/svg" xmlns:xlink="http://www.w3.org/1999/xlink">
<g id="graph0" class="graph" transform="scale(1 1) rotate(0) translate(4 295)">
<title>%3</title>
<polygon fill="white" stroke="transparent" points="-4,4 -4,-295 271.3,-295 271.3,4 -4,4"/>
<g id="clust1" class="cluster">
<title>cluster3</title>
<path fill="none" stroke="black" d="M93.5,-8C93.5,-8 243.5,-8 243.5,-8 249.5,-8 255.5,-14 255.5,-20 255.5,-20 255.5,-143 255.5,-143 255.5,-149 249.5,-155 243.5,-155 243.5,-155 93.5,-155 93.5,-155 87.5,-155 81.5,-149 81.5,-143 81.5,-143 81.5,-20 81.5,-20 81.5,-14 87.5,-8 93.5,-8"/>
<text text-anchor="middle" x="244" y="-15.8" font-family="Times,serif" font-size="14.00">3</text>
</g>
<!-- y -->
<g id="node1" class="node">
<title>y</title>
<polygon fill="none" stroke="black" points="113,-219 0,-219 0,-183 113,-183 113,-219"/>
<text text-anchor="middle" x="56.5" y="-197.3" font-family="Times,serif" font-size="14.00">y ~ Deterministic</text>
</g>
<!-- observed -->
<g id="node5" class="node">
<title>observed</title>
<ellipse fill="lightgrey" stroke="black" cx="168.5" cy="-129" rx="79.09" ry="18"/>
<text text-anchor="middle" x="168.5" y="-125.3" font-family="Times,serif" font-size="14.00">observed ~ Normal</text>
</g>
<!-- y&#45;&gt;observed -->
<g id="edge4" class="edge">
<title>y&#45;&gt;observed</title>
<path fill="none" stroke="black" d="M83.9,-182.88C98.98,-173.45 117.84,-161.66 133.93,-151.61"/>
<polygon fill="black" stroke="black" points="135.91,-154.49 142.54,-146.23 132.2,-148.56 135.91,-154.49"/>
</g>
<!-- x -->
<g id="node2" class="node">
<title>x</title>
<ellipse fill="none" stroke="black" cx="191.5" cy="-273" rx="51.99" ry="18"/>
<text text-anchor="middle" x="191.5" y="-269.3" font-family="Times,serif" font-size="14.00">x ~ Normal</text>
</g>
<!-- x&#45;&gt;y -->
<g id="edge1" class="edge">
<title>x&#45;&gt;y</title>
<path fill="none" stroke="black" d="M163.85,-257.67C145.04,-247.91 119.79,-234.82 98.5,-223.78"/>
<polygon fill="black" stroke="black" points="99.84,-220.53 89.35,-219.03 96.61,-226.74 99.84,-220.53"/>
</g>
<!-- z -->
<g id="node3" class="node">
<title>z</title>
<polygon fill="none" stroke="black" points="252,-193.54 252,-208.46 216.56,-219 166.44,-219 131,-208.46 131,-193.54 166.44,-183 216.56,-183 252,-193.54"/>
<text text-anchor="middle" x="191.5" y="-197.3" font-family="Times,serif" font-size="14.00">z ~ Potential</text>
</g>
<!-- x&#45;&gt;z -->
<g id="edge2" class="edge">
<title>x&#45;&gt;z</title>
<path fill="none" stroke="black" d="M191.5,-254.7C191.5,-246.98 191.5,-237.71 191.5,-229.11"/>
<polygon fill="black" stroke="black" points="195,-229.1 191.5,-219.1 188,-229.1 195,-229.1"/>
</g>
<!-- x&#45;&gt;observed -->
<g id="edge5" class="edge">
<title>x&#45;&gt;observed</title>
<path fill="none" stroke="black" d="M221.07,-257.97C236.13,-249.1 253.02,-236.06 261.5,-219 268.62,-204.67 269.54,-196.83 261.5,-183 252.68,-167.82 237.71,-156.63 222.32,-148.55"/>
<polygon fill="black" stroke="black" points="223.78,-145.37 213.26,-144.14 220.72,-151.66 223.78,-145.37"/>
</g>
<!-- my_observation -->
<g id="node4" class="node">
<title>my_observation</title>
<path fill="lightgrey" stroke="black" d="M229,-75C229,-75 108,-75 108,-75 102,-75 96,-69 96,-63 96,-63 96,-51 96,-51 96,-45 102,-39 108,-39 108,-39 229,-39 229,-39 235,-39 241,-45 241,-51 241,-51 241,-63 241,-63 241,-69 235,-75 229,-75"/>
<text text-anchor="middle" x="168.5" y="-53.3" font-family="Times,serif" font-size="14.00">my_observation ~ Data</text>
</g>
<!-- observed&#45;&gt;my_observation -->
<g id="edge3" class="edge">
<title>observed&#45;&gt;my_observation</title>
<path fill="none" stroke="black" d="M168.5,-110.7C168.5,-102.98 168.5,-93.71 168.5,-85.11"/>
<polygon fill="black" stroke="black" points="172,-85.1 168.5,-75.1 165,-85.1 172,-85.1"/>
</g>
</g>
</svg>
